<?xml version="1.0" encoding="UTF-8" standalone="no"?>
<!-- Created with Inkscape (http://www.inkscape.org/) -->

<svg
   xmlns:dc="http://purl.org/dc/elements/1.1/"
   xmlns:cc="http://creativecommons.org/ns#"
   xmlns:rdf="http://www.w3.org/1999/02/22-rdf-syntax-ns#"
   xmlns:svg="http://www.w3.org/2000/svg"
   xmlns="http://www.w3.org/2000/svg"
   xmlns:xlink="http://www.w3.org/1999/xlink"
   xmlns:sodipodi="http://sodipodi.sourceforge.net/DTD/sodipodi-0.dtd"
   xmlns:inkscape="http://www.inkscape.org/namespaces/inkscape"
   width="982.56"
   height="1321.501"
   id="svg12294"
   version="1.1"
   inkscape:version="0.48.4 r9939"
   sodipodi:docname="location_B_verde.svg">
  <defs
     id="defs12296">
    <linearGradient
       inkscape:collect="always"
       xlink:href="#SVGID_8_"
       id="linearGradient9710"
       gradientUnits="userSpaceOnUse"
       gradientTransform="matrix(-1,0,0,-1,2882,5096.9)"
       x1="-96.945999"
       y1="3969.5"
       x2="474.73001"
       y2="3969.5" />
    <linearGradient
       id="SVGID_8_"
       y2="3969.5"
       gradientUnits="userSpaceOnUse"
       x2="474.73001"
       gradientTransform="matrix(-1,0,0,-1,2882,5096.9)"
       y1="3969.5"
       x1="-96.945999">
      <stop
         stop-color="#0075CE"
         offset="0"
         id="stop4843" />
      <stop
         stop-color="#2F95E4"
         offset=".8817"
         id="stop4845" />
    </linearGradient>
    <mask
       id="SVGID_9_"
       height="455.963"
       width="571.675"
       y="899.44"
       x="2407.271"
       maskUnits="userSpaceOnUse">
      <g
         style="filter:url(#Adobe_OpacityMaskFilter_2_)"
         id="g4855">
        <polygon
           style="fill:url(#SVGID_3_)"
           points="1185.8,2951.6 466.96,1706.6 1904.6,1706.6 "
           id="polygon4857" />
      </g>
    </mask>
    <filter
       color-interpolation-filters="sRGB"
       id="Adobe_OpacityMaskFilter_2_"
       height="455.95999"
       width="571.67999"
       y="899.44"
       x="2407.3"
       filterUnits="userSpaceOnUse">
      <feColorMatrix
         values="1 0 0 0 0  0 1 0 0 0  0 0 1 0 0  0 0 0 1 0"
         type="matrix"
         id="feColorMatrix4852" />
    </filter>
    <linearGradient
       id="SVGID_3_"
       y2="2486.8999"
       gradientUnits="userSpaceOnUse"
       x2="1185.8"
       y1="2171.3"
       x1="1185.8">
      <stop
         stop-color="#fff"
         offset="0"
         id="stop4703" />
      <stop
         offset="1"
         id="stop4705" />
    </linearGradient>
    <linearGradient
       inkscape:collect="always"
       xlink:href="#SVGID_11_"
       id="linearGradient9712"
       gradientUnits="userSpaceOnUse"
       x1="2201.8"
       y1="593.28003"
       x2="3184.3999"
       y2="593.28003" />
    <linearGradient
       id="SVGID_11_"
       y2="593.28003"
       gradientUnits="userSpaceOnUse"
       x2="3184.3999"
       y1="593.28003"
       x1="2201.8">
      <stop
         stop-color="#2F95E4"
         offset=".1183"
         id="stop4862" />
      <stop
         stop-color="#0075CE"
         offset="1"
         id="stop4864" />
    </linearGradient>
    <radialGradient
       inkscape:collect="always"
       xlink:href="#SVGID_12_"
       id="radialGradient9714"
       gradientUnits="userSpaceOnUse"
       gradientTransform="matrix(0.4798,0,0,0.4798,1486.6,518.45)"
       cx="2546.8"
       cy="-793.65002"
       r="1598.1" />
    <radialGradient
       id="SVGID_12_"
       gradientUnits="userSpaceOnUse"
       cy="-793.65002"
       cx="2546.8"
       gradientTransform="matrix(0.4798,0,0,0.4798,1486.6,518.45)"
       r="1598.1">
      <stop
         stop-color="#2F95E4"
         offset=".5066"
         id="stop4869" />
      <stop
         stop-color="#0075CE"
         offset="1"
         id="stop4871" />
    </radialGradient>
    <mask
       id="SVGID_13_"
       height="544.797"
       width="770.459"
       y="185.025"
       x="2307.879"
       maskUnits="userSpaceOnUse">
      <g
         style="filter:url(#Adobe_OpacityMaskFilter_3_)"
         id="g4881">
        <linearGradient
           id="SVGID_14_"
           y2="642.66998"
           gradientUnits="userSpaceOnUse"
           x2="2693.1001"
           y1="74.056"
           x1="2693.1001">
          <stop
             stop-color="#fff"
             offset="0"
             id="stop4884" />
          <stop
             offset="1"
             id="stop4886" />
        </linearGradient>
        <path
           style="fill:url(#SVGID_14_)"
           inkscape:connector-curvature="0"
           d="m 2693.1,753.81 c -103.68,0 -200.68,-14.692 -273.13,-41.369 -40.649,-14.967 -72.774,-33.457 -95.483,-54.956 -12.825,-12.143 -22.766,-25.387 -29.544,-39.364 -7.337,-15.128 -11.057,-31.232 -11.057,-47.867 0,-55.234 10.823,-108.83 32.168,-159.29 20.612,-48.732 50.115,-92.493 87.689,-130.07 37.574,-37.577 81.335,-67.077 130.07,-87.689 50.466,-21.345 104.06,-32.168 159.29,-32.168 55.23,0 108.83,10.823 159.29,32.168 48.732,20.612 92.493,50.115 130.07,87.689 37.574,37.574 67.077,81.335 87.689,130.07 21.345,50.466 32.168,104.06 32.168,159.29 0,16.634 -3.72,32.739 -11.057,47.867 -6.779,13.977 -16.719,27.221 -29.544,39.364 -22.708,21.499 -54.833,39.99 -95.483,54.956 -72.6,26.68 -169.6,41.37 -273.3,41.37 z"
           id="path4888" />
      </g>
    </mask>
    <filter
       color-interpolation-filters="sRGB"
       id="Adobe_OpacityMaskFilter_3_"
       height="544.79999"
       width="770.46002"
       y="185.02"
       x="2307.8999"
       filterUnits="userSpaceOnUse">
      <feColorMatrix
         values="1 0 0 0 0  0 1 0 0 0  0 0 1 0 0  0 0 0 1 0"
         type="matrix"
         id="feColorMatrix4878" />
    </filter>
    <linearGradient
       id="linearGradient14336"
       y2="642.66998"
       gradientUnits="userSpaceOnUse"
       x2="2693.1001"
       y1="74.056"
       x1="2693.1001">
      <stop
         stop-color="#fff"
         offset="0"
         id="stop14338" />
      <stop
         offset="1"
         id="stop14340" />
    </linearGradient>
    <linearGradient
       inkscape:collect="always"
       xlink:href="#SVGID_8_"
       id="linearGradient14586"
       gradientUnits="userSpaceOnUse"
       gradientTransform="matrix(-1,0,0,-1,2882,5096.9)"
       x1="-96.945999"
       y1="3969.5"
       x2="474.73001"
       y2="3969.5" />
    <linearGradient
       inkscape:collect="always"
       xlink:href="#SVGID_11_"
       id="linearGradient14588"
       gradientUnits="userSpaceOnUse"
       x1="2201.8"
       y1="593.28003"
       x2="3184.3999"
       y2="593.28003" />
    <radialGradient
       inkscape:collect="always"
       xlink:href="#SVGID_12_"
       id="radialGradient14590"
       gradientUnits="userSpaceOnUse"
       gradientTransform="matrix(0.4798,0,0,0.4798,1486.6,518.45)"
       cx="2546.8"
       cy="-793.65002"
       r="1598.1" />
  </defs>
  <sodipodi:namedview
     id="base"
     pagecolor="#ffffff"
     bordercolor="#666666"
     borderopacity="1.0"
     inkscape:pageopacity="0.0"
     inkscape:pageshadow="2"
     inkscape:zoom="0.35"
     inkscape:cx="845.4171"
     inkscape:cy="935.8266"
     inkscape:document-units="px"
     inkscape:current-layer="layer1"
     showgrid="false"
     inkscape:window-width="1366"
     inkscape:window-height="705"
     inkscape:window-x="-8"
     inkscape:window-y="-8"
     inkscape:window-maximized="1"
     fit-margin-top="0"
     fit-margin-left="0"
     fit-margin-right="0"
     fit-margin-bottom="0" />
  <metadata
     id="metadata12299">
    <rdf:RDF>
      <cc:Work
         rdf:about="">
        <dc:format>image/svg+xml</dc:format>
        <dc:type
           rdf:resource="http://purl.org/dc/dcmitype/StillImage" />
        <dc:title></dc:title>
      </cc:Work>
    </rdf:RDF>
  </metadata>
  <g
     inkscape:label="Capa 1"
     inkscape:groupmode="layer"
     id="layer1"
     transform="translate(354.1371,-5.8974205)">
    <g
       transform="translate(5093.973,134.54855)"
       id="g13586">
      <g
         transform="translate(-7649.9302,-230.65116)"
         id="g9653">
        <ellipse
           style="opacity:0"
           sodipodi:ry="65.901001"
           sodipodi:rx="462.81"
           sodipodi:cy="1357.6"
           sodipodi:cx="2693.1001"
           d="m 3155.9101,1357.6 c 0,36.3961 -207.2071,65.901 -462.81,65.901 -255.6029,0 -462.81,-29.5049 -462.81,-65.901 0,-36.3961 207.2071,-65.901 462.81,-65.901 255.6029,0 462.81,29.5049 462.81,65.901 z"
           cy="1357.6"
           cx="2693.1001"
           rx="462.81"
           ry="65.901001"
           id="ellipse4742" />
        <ellipse
           style="opacity:0.00129999"
           sodipodi:ry="64.116997"
           sodipodi:rx="448.23001"
           sodipodi:cy="1357.6"
           sodipodi:cx="2693.1001"
           d="m 3141.3301,1357.6 c 0,35.4108 -200.6794,64.117 -448.23,64.117 -247.5506,0 -448.23,-28.7062 -448.23,-64.117 0,-35.4109 200.6794,-64.117 448.23,-64.117 247.5506,0 448.23,28.7061 448.23,64.117 z"
           cy="1357.6"
           cx="2693.1001"
           rx="448.23001"
           ry="64.116997"
           id="ellipse4744" />
        <ellipse
           style="opacity:0.00249999"
           sodipodi:ry="62.332001"
           sodipodi:rx="433.66"
           sodipodi:cy="1357.6"
           sodipodi:cx="2693.1001"
           d="m 3126.7601,1357.6 c 0,34.425 -194.1562,62.332 -433.66,62.332 -239.5038,0 -433.66,-27.907 -433.66,-62.332 0,-34.425 194.1562,-62.332 433.66,-62.332 239.5038,0 433.66,27.907 433.66,62.332 z"
           cy="1357.6"
           cx="2693.1001"
           rx="433.66"
           ry="62.332001"
           id="ellipse4746" />
        <ellipse
           style="opacity:0.00369999"
           sodipodi:ry="60.547001"
           sodipodi:rx="419.09"
           sodipodi:cy="1357.6"
           sodipodi:cx="2693.1001"
           d="m 3112.1901,1357.6 c 0,33.4392 -187.633,60.547 -419.09,60.547 -231.457,0 -419.09,-27.1078 -419.09,-60.547 0,-33.4392 187.633,-60.547 419.09,-60.547 231.457,0 419.09,27.1078 419.09,60.547 z"
           cy="1357.6"
           cx="2693.1001"
           rx="419.09"
           ry="60.547001"
           id="ellipse4748" />
        <ellipse
           style="opacity:0.00499998"
           sodipodi:ry="58.763"
           sodipodi:rx="404.51999"
           sodipodi:cy="1357.6"
           sodipodi:cx="2693.1001"
           d="m 3097.6201,1357.6 c 0,32.4539 -181.1098,58.763 -404.52,58.763 -223.4102,0 -404.52,-26.3091 -404.52,-58.763 0,-32.4539 181.1098,-58.763 404.52,-58.763 223.4102,0 404.52,26.3091 404.52,58.763 z"
           cy="1357.6"
           cx="2693.1001"
           rx="404.51999"
           ry="58.763"
           id="ellipse4750" />
        <ellipse
           style="opacity:0.00630002"
           sodipodi:ry="56.978001"
           sodipodi:rx="389.95001"
           sodipodi:cy="1357.6"
           sodipodi:cx="2693.1001"
           d="m 3083.0501,1357.6 c 0,31.4681 -174.5866,56.978 -389.95,56.978 -215.3634,0 -389.95,-25.5099 -389.95,-56.978 0,-31.4681 174.5866,-56.978 389.95,-56.978 215.3634,0 389.95,25.5099 389.95,56.978 z"
           cy="1357.6"
           cx="2693.1001"
           rx="389.95001"
           ry="56.978001"
           id="ellipse4752" />
        <ellipse
           style="opacity:0.00750002"
           sodipodi:ry="55.193001"
           sodipodi:rx="375.38"
           sodipodi:cy="1357.6"
           sodipodi:cx="2693.1001"
           d="m 3068.4801,1357.6 c 0,30.4822 -168.0634,55.193 -375.38,55.193 -207.3167,0 -375.38,-24.7108 -375.38,-55.193 0,-30.4823 168.0633,-55.193 375.38,-55.193 207.3166,0 375.38,24.7107 375.38,55.193 z"
           cy="1357.6"
           cx="2693.1001"
           rx="375.38"
           ry="55.193001"
           id="ellipse4754" />
        <ellipse
           style="opacity:0.00880001"
           sodipodi:ry="53.409"
           sodipodi:rx="360.81"
           sodipodi:cy="1357.6"
           sodipodi:cx="2693.1001"
           d="m 3053.9101,1357.6 c 0,29.497 -161.5401,53.409 -360.81,53.409 -199.2699,0 -360.81,-23.912 -360.81,-53.409 0,-29.497 161.5401,-53.409 360.81,-53.409 199.2699,0 360.81,23.912 360.81,53.409 z"
           cy="1357.6"
           cx="2693.1001"
           rx="360.81"
           ry="53.409"
           id="ellipse4756" />
        <ellipse
           style="opacity:0.01000001"
           sodipodi:ry="51.624001"
           sodipodi:rx="346.23001"
           sodipodi:cy="1357.6"
           sodipodi:cx="2693.1001"
           d="m 3039.3301,1357.6 c 0,28.5111 -155.0124,51.624 -346.23,51.624 -191.2176,0 -346.23,-23.1129 -346.23,-51.624 0,-28.5112 155.0124,-51.624 346.23,-51.624 191.2176,0 346.23,23.1128 346.23,51.624 z"
           cy="1357.6"
           cx="2693.1001"
           rx="346.23001"
           ry="51.624001"
           id="ellipse4758" />
        <ellipse
           style="opacity:0.0113"
           sodipodi:ry="49.84"
           sodipodi:rx="331.66"
           sodipodi:cy="1357.6"
           sodipodi:cx="2693.1001"
           d="m 3024.7601,1357.6 c 0,27.5258 -148.4892,49.84 -331.66,49.84 -183.1708,0 -331.66,-22.3142 -331.66,-49.84 0,-27.5259 148.4892,-49.84 331.66,-49.84 183.1708,0 331.66,22.3141 331.66,49.84 z"
           cy="1357.6"
           cx="2693.1001"
           rx="331.66"
           ry="49.84"
           id="ellipse4760" />
        <ellipse
           style="opacity:0.0125"
           sodipodi:ry="48.055"
           sodipodi:rx="317.09"
           sodipodi:cy="1357.6"
           sodipodi:cx="2693.1001"
           d="m 3010.1901,1357.6 c 0,26.54 -141.966,48.055 -317.09,48.055 -175.124,0 -317.09,-21.515 -317.09,-48.055 0,-26.5401 141.966,-48.055 317.09,-48.055 175.124,0 317.09,21.5149 317.09,48.055 z"
           cy="1357.6"
           cx="2693.1001"
           rx="317.09"
           ry="48.055"
           id="ellipse4762" />
        <ellipse
           style="opacity:0.0137"
           sodipodi:ry="46.27"
           sodipodi:rx="302.51999"
           sodipodi:cy="1357.6"
           sodipodi:cx="2693.1001"
           d="m 2995.6201,1357.6 c 0,25.5542 -135.4428,46.27 -302.52,46.27 -167.0772,0 -302.52,-20.7158 -302.52,-46.27 0,-25.5542 135.4428,-46.27 302.52,-46.27 167.0772,0 302.52,20.7158 302.52,46.27 z"
           cy="1357.6"
           cx="2693.1001"
           rx="302.51999"
           ry="46.27"
           id="ellipse4764" />
        <ellipse
           style="opacity:0.01499999"
           sodipodi:ry="44.486"
           sodipodi:rx="287.95001"
           sodipodi:cy="1357.6"
           sodipodi:cx="2693.1001"
           d="m 2981.0501,1357.6 c 0,24.5689 -128.9196,44.486 -287.95,44.486 -159.0304,0 -287.95,-19.9171 -287.95,-44.486 0,-24.569 128.9196,-44.486 287.95,-44.486 159.0304,0 287.95,19.917 287.95,44.486 z"
           cy="1357.6"
           cx="2693.1001"
           rx="287.95001"
           ry="44.486"
           id="ellipse4766" />
        <ellipse
           style="opacity:0.01619999"
           sodipodi:ry="42.701"
           sodipodi:rx="273.38"
           sodipodi:cy="1357.6"
           sodipodi:cx="2693.1001"
           d="m 2966.4801,1357.6 c 0,23.5831 -122.3964,42.701 -273.38,42.701 -150.9836,0 -273.38,-19.1179 -273.38,-42.701 0,-23.5831 122.3964,-42.701 273.38,-42.701 150.9836,0 273.38,19.1179 273.38,42.701 z"
           cy="1357.6"
           cx="2693.1001"
           rx="273.38"
           ry="42.701"
           id="ellipse4768" />
        <ellipse
           style="opacity:0.01749998"
           sodipodi:ry="40.916"
           sodipodi:rx="258.81"
           sodipodi:cy="1357.6"
           sodipodi:cx="2693.1001"
           d="m 2951.9101,1357.6 c 0,22.5973 -115.8732,40.916 -258.81,40.916 -142.9368,0 -258.81,-18.3187 -258.81,-40.916 0,-22.5973 115.8732,-40.916 258.81,-40.916 142.9368,0 258.81,18.3187 258.81,40.916 z"
           cy="1357.6"
           cx="2693.1001"
           rx="258.81"
           ry="40.916"
           id="ellipse4770" />
        <ellipse
           style="opacity:0.01880002"
           sodipodi:ry="39.132"
           sodipodi:rx="244.24001"
           sodipodi:cy="1357.6"
           sodipodi:cx="2693.1001"
           d="m 2937.3401,1357.6 c 0,21.612 -109.35,39.132 -244.24,39.132 -134.89,0 -244.24,-17.52 -244.24,-39.132 0,-21.612 109.35,-39.132 244.24,-39.132 134.89,0 244.24,17.52 244.24,39.132 z"
           cy="1357.6"
           cx="2693.1001"
           rx="244.24001"
           ry="39.132"
           id="ellipse4772" />
        <ellipse
           style="opacity:0.02000002"
           sodipodi:ry="37.347"
           sodipodi:rx="229.66"
           sodipodi:cy="1357.6"
           sodipodi:cx="2693.1001"
           d="m 2922.7601,1357.6 c 0,20.6262 -102.8223,37.347 -229.66,37.347 -126.8377,0 -229.66,-16.7208 -229.66,-37.347 0,-20.6262 102.8223,-37.347 229.66,-37.347 126.8377,0 229.66,16.7208 229.66,37.347 z"
           cy="1357.6"
           cx="2693.1001"
           rx="229.66"
           ry="37.347"
           id="ellipse4774" />
        <ellipse
           style="opacity:0.02130001"
           sodipodi:ry="35.562"
           sodipodi:rx="215.09"
           sodipodi:cy="1357.6"
           sodipodi:cx="2693.1001"
           d="m 2908.1901,1357.6 c 0,19.6403 -96.2991,35.562 -215.09,35.562 -118.7909,0 -215.09,-15.9217 -215.09,-35.562 0,-19.6404 96.2991,-35.562 215.09,-35.562 118.7909,0 215.09,15.9216 215.09,35.562 z"
           cy="1357.6"
           cx="2693.1001"
           rx="215.09"
           ry="35.562"
           id="ellipse4776" />
        <ellipse
           style="opacity:0.02250001"
           sodipodi:ry="33.778"
           sodipodi:rx="200.52"
           sodipodi:cy="1357.6"
           sodipodi:cx="2693.1001"
           d="m 2893.6201,1357.6 c 0,18.655 -89.7759,33.778 -200.52,33.778 -110.7441,0 -200.52,-15.123 -200.52,-33.778 0,-18.6551 89.7759,-33.778 200.52,-33.778 110.7441,0 200.52,15.1229 200.52,33.778 z"
           cy="1357.6"
           cx="2693.1001"
           rx="200.52"
           ry="33.778"
           id="ellipse4778" />
        <ellipse
           style="opacity:0.02370001"
           sodipodi:ry="31.993"
           sodipodi:rx="185.95"
           sodipodi:cy="1357.6"
           sodipodi:cx="2693.1001"
           d="m 2879.0501,1357.6 c 0,17.6692 -83.2527,31.993 -185.95,31.993 -102.6973,0 -185.95,-14.3238 -185.95,-31.993 0,-17.6693 83.2527,-31.993 185.95,-31.993 102.6973,0 185.95,14.3237 185.95,31.993 z"
           cy="1357.6"
           cx="2693.1001"
           rx="185.95"
           ry="31.993"
           id="ellipse4780" />
        <ellipse
           style="opacity:0.025"
           sodipodi:ry="30.208"
           sodipodi:rx="171.38"
           sodipodi:cy="1357.6"
           sodipodi:cx="2693.1001"
           d="m 2864.4801,1357.6 c 0,16.6834 -76.7294,30.208 -171.38,30.208 -94.6506,0 -171.38,-13.5246 -171.38,-30.208 0,-16.6834 76.7294,-30.208 171.38,-30.208 94.6506,0 171.38,13.5246 171.38,30.208 z"
           cy="1357.6"
           cx="2693.1001"
           rx="171.38"
           ry="30.208"
           id="ellipse4782" />
        <ellipse
           style="opacity:0.0262"
           sodipodi:ry="28.424"
           sodipodi:rx="156.81"
           sodipodi:cy="1357.6"
           sodipodi:cx="2693.1001"
           d="m 2849.9101,1357.6 c 0,15.6981 -70.2062,28.424 -156.81,28.424 -86.6038,0 -156.81,-12.7259 -156.81,-28.424 0,-15.6982 70.2062,-28.424 156.81,-28.424 86.6038,0 156.81,12.7258 156.81,28.424 z"
           cy="1357.6"
           cx="2693.1001"
           rx="156.81"
           ry="28.424"
           id="ellipse4784" />
        <ellipse
           style="opacity:0.02749999"
           sodipodi:ry="26.639"
           sodipodi:rx="142.24001"
           sodipodi:cy="1357.6"
           sodipodi:cx="2693.1001"
           d="m 2835.3401,1357.6 c 0,14.7123 -63.683,26.639 -142.24,26.639 -78.557,0 -142.24,-11.9267 -142.24,-26.639 0,-14.7123 63.683,-26.639 142.24,-26.639 78.557,0 142.24,11.9267 142.24,26.639 z"
           cy="1357.6"
           cx="2693.1001"
           rx="142.24001"
           ry="26.639"
           id="ellipse4786" />
        <ellipse
           style="opacity:0.02879998"
           sodipodi:ry="24.854"
           sodipodi:rx="127.66"
           sodipodi:cy="1357.6"
           sodipodi:cx="2693.1001"
           d="m 2820.7601,1357.6 c 0,13.7265 -57.1553,24.854 -127.66,24.854 -70.5047,0 -127.66,-11.1275 -127.66,-24.854 0,-13.7265 57.1553,-24.854 127.66,-24.854 70.5047,0 127.66,11.1275 127.66,24.854 z"
           cy="1357.6"
           cx="2693.1001"
           rx="127.66"
           ry="24.854"
           id="ellipse4788" />
        <ellipse
           style="opacity:0.02999998"
           sodipodi:ry="23.07"
           sodipodi:rx="113.09"
           sodipodi:cy="1357.6"
           sodipodi:cx="2693.1001"
           d="m 2806.1901,1357.6 c 0,12.7412 -50.6321,23.07 -113.09,23.07 -62.4579,0 -113.09,-10.3288 -113.09,-23.07 0,-12.7412 50.6321,-23.07 113.09,-23.07 62.4579,0 113.09,10.3288 113.09,23.07 z"
           cy="1357.6"
           cx="2693.1001"
           rx="113.09"
           ry="23.07"
           id="ellipse4790" />
        <ellipse
           style="opacity:0"
           sodipodi:ry="14.127"
           sodipodi:rx="99.210999"
           sodipodi:cy="1357.6"
           sodipodi:cx="2693.1001"
           d="m 2792.3111,1357.6 c 0,7.8021 -44.4183,14.127 -99.211,14.127 -54.7927,0 -99.211,-6.3249 -99.211,-14.127 0,-7.8022 44.4183,-14.127 99.211,-14.127 54.7927,0 99.211,6.3248 99.211,14.127 z"
           cy="1357.6"
           cx="2693.1001"
           rx="99.210999"
           ry="14.127"
           id="ellipse4792" />
        <ellipse
           style="opacity:0.0042"
           sodipodi:ry="13.566"
           sodipodi:rx="95.269997"
           sodipodi:cy="1357.6"
           sodipodi:cx="2693.1001"
           d="m 2788.3701,1357.6 c 0,7.4923 -42.6538,13.566 -95.27,13.566 -52.6162,0 -95.27,-6.0737 -95.27,-13.566 0,-7.4923 42.6538,-13.566 95.27,-13.566 52.6162,0 95.27,6.0737 95.27,13.566 z"
           cy="1357.6"
           cx="2693.1001"
           rx="95.269997"
           ry="13.566"
           id="ellipse4794" />
        <ellipse
           style="opacity:0.0083"
           sodipodi:ry="13.005"
           sodipodi:rx="91.330002"
           sodipodi:cy="1357.6"
           sodipodi:cx="2693.1001"
           d="m 2784.4301,1357.6 c 0,7.1824 -40.8898,13.005 -91.33,13.005 -50.4402,0 -91.33,-5.8226 -91.33,-13.005 0,-7.1825 40.8898,-13.005 91.33,-13.005 50.4402,0 91.33,5.8225 91.33,13.005 z"
           cy="1357.6"
           cx="2693.1001"
           rx="91.330002"
           ry="13.005"
           id="ellipse4796" />
        <ellipse
           style="opacity:0.0125"
           sodipodi:ry="12.444"
           sodipodi:rx="87.389999"
           sodipodi:cy="1357.6"
           sodipodi:cx="2693.1001"
           d="m 2780.4901,1357.6 c 0,6.8726 -39.1258,12.444 -87.39,12.444 -48.2642,0 -87.39,-5.5714 -87.39,-12.444 0,-6.8727 39.1258,-12.444 87.39,-12.444 48.2642,0 87.39,5.5713 87.39,12.444 z"
           cy="1357.6"
           cx="2693.1001"
           rx="87.389999"
           ry="12.444"
           id="ellipse4798" />
        <ellipse
           style="opacity:0.0167"
           sodipodi:ry="11.883"
           sodipodi:rx="83.449997"
           sodipodi:cy="1357.6"
           sodipodi:cx="2693.1001"
           d="m 2776.5501,1357.6 c 0,6.5628 -37.3618,11.883 -83.45,11.883 -46.0882,0 -83.45,-5.3202 -83.45,-11.883 0,-6.5628 37.3618,-11.883 83.45,-11.883 46.0882,0 83.45,5.3202 83.45,11.883 z"
           cy="1357.6"
           cx="2693.1001"
           rx="83.449997"
           ry="11.883"
           id="ellipse4800" />
        <ellipse
           style="opacity:0.0208"
           sodipodi:ry="11.322"
           sodipodi:rx="79.509003"
           sodipodi:cy="1357.6"
           sodipodi:cx="2693.1001"
           d="m 2772.6091,1357.6 c 0,6.2529 -35.5974,11.322 -79.509,11.322 -43.9116,0 -79.509,-5.0691 -79.509,-11.322 0,-6.253 35.5974,-11.322 79.509,-11.322 43.9116,0 79.509,5.069 79.509,11.322 z"
           cy="1357.6"
           cx="2693.1001"
           rx="79.509003"
           ry="11.322"
           id="ellipse4802" />
        <ellipse
           style="opacity:0.025"
           sodipodi:ry="10.761"
           sodipodi:rx="75.569"
           sodipodi:cy="1357.6"
           sodipodi:cx="2693.1001"
           d="m 2768.6691,1357.6 c 0,5.9431 -33.8334,10.761 -75.569,10.761 -41.7356,0 -75.569,-4.8179 -75.569,-10.761 0,-5.9432 33.8334,-10.761 75.569,-10.761 41.7356,0 75.569,4.8178 75.569,10.761 z"
           cy="1357.6"
           cx="2693.1001"
           rx="75.569"
           ry="10.761"
           id="ellipse4804" />
        <ellipse
           style="opacity:0.0292"
           sodipodi:ry="10.2"
           sodipodi:rx="71.628998"
           sodipodi:cy="1357.6"
           sodipodi:cx="2693.1001"
           d="m 2764.7291,1357.6 c 0,5.6333 -32.0694,10.2 -71.629,10.2 -39.5596,0 -71.629,-4.5667 -71.629,-10.2 0,-5.6333 32.0694,-10.2 71.629,-10.2 39.5596,0 71.629,4.5667 71.629,10.2 z"
           cy="1357.6"
           cx="2693.1001"
           rx="71.628998"
           ry="10.2"
           id="ellipse4806" />
        <ellipse
           style="opacity:0.0333"
           sodipodi:ry="9.6389999"
           sodipodi:rx="67.689003"
           sodipodi:cy="1357.6"
           sodipodi:cx="2693.1001"
           d="m 2760.7891,1357.6 c 0,5.3234 -30.3054,9.639 -67.689,9.639 -37.3836,0 -67.689,-4.3156 -67.689,-9.639 0,-5.3235 30.3054,-9.639 67.689,-9.639 37.3836,0 67.689,4.3155 67.689,9.639 z"
           cy="1357.6"
           cx="2693.1001"
           rx="67.689003"
           ry="9.6389999"
           id="ellipse4808" />
        <ellipse
           style="opacity:0.0375"
           sodipodi:ry="9.0769997"
           sodipodi:rx="63.748001"
           sodipodi:cy="1357.6"
           sodipodi:cx="2693.1001"
           d="m 2756.8481,1357.6 c 0,5.0131 -28.541,9.077 -63.748,9.077 -35.2071,0 -63.748,-4.0639 -63.748,-9.077 0,-5.0131 28.5409,-9.077 63.748,-9.077 35.207,0 63.748,4.0639 63.748,9.077 z"
           cy="1357.6"
           cx="2693.1001"
           rx="63.748001"
           ry="9.0769997"
           id="ellipse4810" />
        <ellipse
           style="opacity:0.0417"
           sodipodi:ry="8.5159998"
           sodipodi:rx="59.807999"
           sodipodi:cy="1357.6"
           sodipodi:cx="2693.1001"
           d="m 2752.9081,1357.6 c 0,4.7032 -26.777,8.516 -59.808,8.516 -33.031,0 -59.808,-3.8128 -59.808,-8.516 0,-4.7033 26.777,-8.516 59.808,-8.516 33.031,0 59.808,3.8127 59.808,8.516 z"
           cy="1357.6"
           cx="2693.1001"
           rx="59.807999"
           ry="8.5159998"
           id="ellipse4812" />
        <ellipse
           style="opacity:0.0458"
           sodipodi:ry="7.9549999"
           sodipodi:rx="55.868"
           sodipodi:cy="1357.6"
           sodipodi:cx="2693.1001"
           d="m 2748.9681,1357.6 c 0,4.3934 -25.013,7.955 -55.868,7.955 -30.855,0 -55.868,-3.5616 -55.868,-7.955 0,-4.3934 25.013,-7.955 55.868,-7.955 30.855,0 55.868,3.5616 55.868,7.955 z"
           cy="1357.6"
           cx="2693.1001"
           rx="55.868"
           ry="7.9549999"
           id="ellipse4814" />
        <ellipse
           style="opacity:0.05"
           sodipodi:ry="7.3940001"
           sodipodi:rx="51.928001"
           sodipodi:cy="1357.6"
           sodipodi:cx="2693.1001"
           d="m 2745.0281,1357.6 c 0,4.0836 -23.249,7.394 -51.928,7.394 -28.679,0 -51.928,-3.3104 -51.928,-7.394 0,-4.0836 23.249,-7.394 51.928,-7.394 28.679,0 51.928,3.3104 51.928,7.394 z"
           cy="1357.6"
           cx="2693.1001"
           rx="51.928001"
           ry="7.3940001"
           id="ellipse4816" />
        <ellipse
           style="opacity:0.0542"
           sodipodi:ry="6.8330002"
           sodipodi:rx="47.987"
           sodipodi:cy="1357.6"
           sodipodi:cx="2693.1001"
           d="m 2741.0871,1357.6 c 0,3.7737 -21.4845,6.833 -47.987,6.833 -26.5025,0 -47.987,-3.0593 -47.987,-6.833 0,-3.7738 21.4845,-6.833 47.987,-6.833 26.5025,0 47.987,3.0592 47.987,6.833 z"
           cy="1357.6"
           cx="2693.1001"
           rx="47.987"
           ry="6.8330002"
           id="ellipse4818" />
        <ellipse
           style="opacity:0.0583"
           sodipodi:ry="6.2719998"
           sodipodi:rx="44.047001"
           sodipodi:cy="1357.6"
           sodipodi:cx="2693.1001"
           d="m 2737.1471,1357.6 c 0,3.4639 -19.7205,6.272 -44.047,6.272 -24.3265,0 -44.047,-2.8081 -44.047,-6.272 0,-3.464 19.7205,-6.272 44.047,-6.272 24.3265,0 44.047,2.808 44.047,6.272 z"
           cy="1357.6"
           cx="2693.1001"
           rx="44.047001"
           ry="6.2719998"
           id="ellipse4820" />
        <ellipse
           style="opacity:0.0625"
           sodipodi:ry="5.711"
           sodipodi:rx="40.106998"
           sodipodi:cy="1357.6"
           sodipodi:cx="2693.1001"
           d="m 2733.2071,1357.6 c 0,3.1541 -17.9565,5.711 -40.107,5.711 -22.1505,0 -40.107,-2.5569 -40.107,-5.711 0,-3.1541 17.9565,-5.711 40.107,-5.711 22.1505,0 40.107,2.5569 40.107,5.711 z"
           cy="1357.6"
           cx="2693.1001"
           rx="40.106998"
           ry="5.711"
           id="ellipse4822" />
        <ellipse
           style="opacity:0.0667"
           sodipodi:ry="5.1500001"
           sodipodi:rx="36.167"
           sodipodi:cy="1357.6"
           sodipodi:cx="2693.1001"
           d="m 2729.2671,1357.6 c 0,2.8442 -16.1925,5.15 -36.167,5.15 -19.9745,0 -36.167,-2.3058 -36.167,-5.15 0,-2.8443 16.1925,-5.15 36.167,-5.15 19.9745,0 36.167,2.3057 36.167,5.15 z"
           cy="1357.6"
           cx="2693.1001"
           rx="36.167"
           ry="5.1500001"
           id="ellipse4824" />
        <ellipse
           style="opacity:0.0708"
           sodipodi:ry="4.5890002"
           sodipodi:rx="32.227001"
           sodipodi:cy="1357.6"
           sodipodi:cx="2693.1001"
           d="m 2725.3271,1357.6 c 0,2.5344 -14.4285,4.589 -32.227,4.589 -17.7985,0 -32.227,-2.0546 -32.227,-4.589 0,-2.5345 14.4285,-4.589 32.227,-4.589 17.7985,0 32.227,2.0545 32.227,4.589 z"
           cy="1357.6"
           cx="2693.1001"
           rx="32.227001"
           ry="4.5890002"
           id="ellipse4826" />
        <ellipse
           style="opacity:0.075"
           sodipodi:ry="4.0279999"
           sodipodi:rx="28.285999"
           sodipodi:cy="1357.6"
           sodipodi:cx="2693.1001"
           d="m 2721.3861,1357.6 c 0,2.2246 -12.6641,4.028 -28.286,4.028 -15.6219,0 -28.286,-1.8034 -28.286,-4.028 0,-2.2246 12.6641,-4.028 28.286,-4.028 15.6219,0 28.286,1.8034 28.286,4.028 z"
           cy="1357.6"
           cx="2693.1001"
           rx="28.285999"
           ry="4.0279999"
           id="ellipse4828" />
        <ellipse
           style="opacity:0.0792"
           sodipodi:ry="3.467"
           sodipodi:rx="24.346001"
           sodipodi:cy="1357.6"
           sodipodi:cx="2693.1001"
           d="m 2717.4461,1357.6 c 0,1.9147 -10.9001,3.467 -24.346,3.467 -13.4459,0 -24.346,-1.5523 -24.346,-3.467 0,-1.9148 10.9001,-3.467 24.346,-3.467 13.4459,0 24.346,1.5522 24.346,3.467 z"
           cy="1357.6"
           cx="2693.1001"
           rx="24.346001"
           ry="3.467"
           id="ellipse4830" />
        <ellipse
           style="opacity:0.0833"
           sodipodi:ry="2.9059999"
           sodipodi:rx="20.406"
           sodipodi:cy="1357.6"
           sodipodi:cx="2693.1001"
           d="m 2713.5061,1357.6 c 0,1.6049 -9.1361,2.906 -20.406,2.906 -11.2699,0 -20.406,-1.3011 -20.406,-2.906 0,-1.605 9.1361,-2.906 20.406,-2.906 11.2699,0 20.406,1.301 20.406,2.906 z"
           cy="1357.6"
           cx="2693.1001"
           rx="20.406"
           ry="2.9059999"
           id="ellipse4832" />
        <ellipse
           style="opacity:0.0875"
           sodipodi:ry="2.345"
           sodipodi:rx="16.466"
           sodipodi:cy="1357.6"
           sodipodi:cx="2693.1001"
           d="m 2709.5661,1357.6 c 0,1.2951 -7.3721,2.345 -16.466,2.345 -9.0939,0 -16.466,-1.0499 -16.466,-2.345 0,-1.2951 7.3721,-2.345 16.466,-2.345 9.0939,0 16.466,1.0499 16.466,2.345 z"
           cy="1357.6"
           cx="2693.1001"
           rx="16.466"
           ry="2.345"
           id="ellipse4834" />
        <ellipse
           style="opacity:0.0917"
           sodipodi:ry="1.784"
           sodipodi:rx="12.525"
           sodipodi:cy="1357.6"
           sodipodi:cx="2693.1001"
           d="m 2705.6251,1357.6 c 0,0.9853 -5.6076,1.784 -12.525,1.784 -6.9174,0 -12.525,-0.7987 -12.525,-1.784 0,-0.9853 5.6076,-1.784 12.525,-1.784 6.9174,0 12.525,0.7987 12.525,1.784 z"
           cy="1357.6"
           cx="2693.1001"
           rx="12.525"
           ry="1.784"
           id="ellipse4836" />
        <ellipse
           style="opacity:0.0958"
           sodipodi:ry="1.222"
           sodipodi:rx="8.585"
           sodipodi:cy="1357.6"
           sodipodi:cx="2693.1001"
           d="m 2701.6851,1357.6 c 0,0.6749 -3.8436,1.222 -8.585,1.222 -4.7414,0 -8.585,-0.5471 -8.585,-1.222 0,-0.6749 3.8436,-1.222 8.585,-1.222 4.7414,0 8.585,0.5471 8.585,1.222 z"
           cy="1357.6"
           cx="2693.1001"
           rx="8.585"
           ry="1.222"
           id="ellipse4838" />
        <ellipse
           style="opacity:0.1"
           sodipodi:ry="0.66100001"
           sodipodi:rx="4.645"
           sodipodi:cy="1357.6"
           sodipodi:cx="2693.1001"
           d="m 2697.7451,1357.6 c 0,0.365 -2.0796,0.661 -4.645,0.661 -2.5654,0 -4.645,-0.296 -4.645,-0.661 0,-0.3651 2.0796,-0.661 4.645,-0.661 2.5654,0 4.645,0.2959 4.645,0.661 z"
           cy="1357.6"
           cx="2693.1001"
           rx="4.645"
           ry="0.66100001"
           id="ellipse4840" />
        <polygon
           style="fill:url(#linearGradient14586)"
           points="2978.9,899.44 2693.1,1355.4 2407.3,899.44 "
           id="polygon4847" />
        <polygon
           style="fill:#0079d6"
           points="2978.9,899.44 2693.1,1355.4 2407.3,899.44 "
           mask="url(#SVGID_9_)"
           id="polygon4859" />
        <circle
           sodipodi:ry="491.28"
           sodipodi:rx="491.28"
           sodipodi:cy="593.28003"
           sodipodi:cx="2693.1001"
           style="fill:url(#linearGradient14588)"
           d="m 3184.3801,593.28003 c 0,271.32645 -219.9536,491.27997 -491.28,491.27997 -271.3265,0 -491.28,-219.95352 -491.28,-491.27997 0,-271.32645 219.9535,-491.28 491.28,-491.28 271.3264,0 491.28,219.95355 491.28,491.28 z"
           cy="593.28003"
           cx="2693.1001"
           r="491.28"
           id="circle4866" />
        <circle
           sodipodi:ry="446.17999"
           sodipodi:rx="446.17999"
           sodipodi:cy="593.28003"
           sodipodi:cx="2693.1001"
           style="fill:url(#radialGradient14590)"
           d="m 3139.2801,593.28003 c 0,246.4184 -199.7616,446.17997 -446.18,446.17997 -246.4184,0 -446.18,-199.76157 -446.18,-446.17997 0,-246.41841 199.7616,-446.17999 446.18,-446.17999 246.4184,0 446.18,199.76158 446.18,446.17999 z"
           cy="593.28003"
           cx="2693.1001"
           r="446.17999"
           id="circle4873" />
        <path
           style="fill:#ffffff"
           inkscape:connector-curvature="0"
           mask="url(#SVGID_13_)"
           d="m 3078.3,570.26 c 0,212.76 -770.46,212.76 -770.46,0 0,-212.76 172.47,-385.23 385.23,-385.23 212.9,-0.01 385.3,172.47 385.3,385.23 z"
           id="path4890" />
      </g>
      <text
         sodipodi:linespacing="125%"
         id="text11722-1"
         y="563.67297"
         x="-5153.6675"
         style="font-size:641.31585693px;font-style:normal;font-weight:normal;line-height:125%;letter-spacing:0px;word-spacing:0px;fill:#000000;fill-opacity:1;stroke:none;font-family:Sans"
         xml:space="preserve"><tspan
           y="563.67297"
           x="-5153.6675"
           id="tspan11724-6"
           sodipodi:role="line">B</tspan></text>
    </g>
  </g>
</svg>
